<svg width="1040" height="400" xmlns="http://www.w3.org/2000/svg" xmlns:xlink="http://www.w3.org/1999/xlink"><defs><rect id="c" x="0" y="0" width="100" height="188" rx="10"/><path id="a" d="M0 0h1040v400H0z"/></defs><g fill="none" fill-rule="evenodd"><mask id="b" fill="#fff"><use xlink:href="#a"/></mask><use fill="#D8CDC6" xlink:href="#a"/><g mask="url(#b)"><path d="M441 31H325a6.978 6.978 0 00-4.95 2.05A6.978 6.978 0 00318 38v76c0 1.933.784 3.683 2.05 4.95A6.978 6.978 0 00325 121h34.69a9 9 0 016.371 2.644l11.965 11.996a6.978 6.978 0 004.94 2.057 6.978 6.978 0 004.95-2.034l12.124-12.047a9 9 0 016.343-2.616H441a6.978 6.978 0 004.95-2.05A6.978 6.978 0 00448 114V38a6.978 6.978 0 00-2.05-4.95A6.978 6.978 0 00441 31z" stroke="#BFADA0" stroke-width="2"/><g transform="translate(353 46)"><path d="M0 44V23a4 4 0 014-4h28a4 4 0 014 4v11h0" stroke="#BFADA0" stroke-width="2" stroke-linecap="round"/><path d="M28 19v-9C27.984 4.484 23.516.016 18 0h0C12.484.016 8.016 4.484 8 10v9" stroke="#BFADA0" stroke-width="2" stroke-linecap="square"/><circle stroke="#BFADA0" stroke-width="2" cx="18" cy="30" r="4"/><rect stroke="#BFADA0" stroke-width="2" stroke-linecap="square" x="6" y="40" width="54" height="20" rx="5"/><path d="M27 47a3 3 0 110 6 3 3 0 010-6zm12 0a3 3 0 110 6 3 3 0 010-6zm12 0a3 3 0 110 6 3 3 0 010-6zm-36 0a3 3 0 110 6 3 3 0 010-6z" fill="#BFADA0"/></g></g><g mask="url(#b)"><path fill="#352315" opacity=".16" d="M509.272 73.08L827.74 56.39l23.224 40.06 11.764 224.47-339.534 17.795z"/><path d="M831.182 53.42L514.323 70.026l13.817 263.638 337.537-17.69-11.7-223.23-22.795-39.324z" stroke="#BFADA0" stroke-width="2" fill="#D8CDC6"/><path stroke="#BFADA0" stroke-width="2" stroke-linecap="round" d="M804.108 55.32l48.566 35.458"/><path fill="#BFADA0" d="M804.107 55.32l27.013-1.894 22.187 38.054z"/></g><g mask="url(#b)"><path d="M351 120c5.523 0 10 4.477 10 10v103.127c2.384.429 16.38 3.288 16.38 11.235 0 5.516-6.725 8.918-16.38 8.038l-.001 7.374c4.195 1.03 14.278 3.929 17.684 8.697 4.475 9.357-12.008 11.474-17.685 9.92L361 298a9.963 9.963 0 01-2.593 6.718c1.932-.127 4.564-.212 6.81.024 4.126.435 6.515 4.344 5.647 8.688-.869 4.344-2.824 6.516-12.163 8.254-9.34 1.737-52.56 9.99-52.56 9.99s-6.082.218-11.295 7.168-28.67 44.09-44.959 64.507c-1.955 3.04-3.693 6.515-4.779 10.208-1.086 3.692-7.602 25.194-7.602 25.194H149s39.095-83.402 56.688-122.823c17.592-39.421 40.724-87.964 43.004-91.873 1.859-3.187 6.314-9.185 12.307-11.296L261 130c0-5.523 4.477-10 10-10h80z" fill="#352315" opacity=".06"/><path d="M130 406.75s39.095-83.401 56.688-122.822c17.592-39.421 40.724-87.964 43.004-91.873 2.281-3.91 8.471-12.054 16.616-12.054 8.144 0 95.348 21.067 95.348 21.067s16.723 2.607 16.723 11.294c0 5.865-7.6 9.34-18.244 7.819v7.168s15.204 3.04 19.548 9.122c4.778 9.99-14.335 11.728-18.679 9.556-4.344-2.172-4.344 26.932-4.344 26.932s5.43-.651 9.557-.217c4.126.435 6.515 4.344 5.647 8.688-.869 4.344-2.824 6.516-12.163 8.254-9.34 1.737-52.56 9.99-52.56 9.99s-6.082.218-11.295 7.168-28.67 44.09-44.959 64.507c-1.955 3.04-3.693 6.515-4.779 10.208-1.086 3.692-7.602 25.194-7.602 25.194H130z" fill="#947557"/><path d="M248.045 201.286s-11.294 71.89-10.208 71.89c1.086 0 17.593-17.592 17.593-17.592l-4.344-48.651-3.041-5.647z" fill="#6E5641"/><g transform="translate(242 88)"><mask id="d" fill="#fff"><use xlink:href="#c"/></mask><use fill="#FFF" xlink:href="#c"/><path d="M7 10h86a8 8 0 018 8v152a8 8 0 01-8 8H7a8 8 0 01-8-8V18a8 8 0 018-8z" fill="#4D5D8C" mask="url(#d)"/><path d="M-1 106h102v64a8 8 0 01-8 8H7a8 8 0 01-8-8v-64z" fill="#232B40" mask="url(#d)"/></g><g transform="translate(242 162)"><path d="M10 40a1 1 0 011 1v6a1 1 0 01-1 1H6a1 1 0 01-1-1v-6a1 1 0 011-1h4zm12 0a1 1 0 011 1v6a1 1 0 01-1 1h-4a1 1 0 01-1-1v-6a1 1 0 011-1h4zm12 0a1 1 0 011 1v6a1 1 0 01-1 1h-4a1 1 0 01-1-1v-6a1 1 0 011-1h4zm12 0a1 1 0 011 1v6a1 1 0 01-1 1h-4a1 1 0 01-1-1v-6a1 1 0 011-1h4zm12 0a1 1 0 011 1v6a1 1 0 01-1 1h-4a1 1 0 01-1-1v-6a1 1 0 011-1h4zm12 0a1 1 0 011 1v6a1 1 0 01-1 1h-4a1 1 0 01-1-1v-6a1 1 0 011-1h4zm12 0a1 1 0 011 1v6a1 1 0 01-1 1h-4a1 1 0 01-1-1v-6a1 1 0 011-1h4zm12 0a1 1 0 011 1v6a1 1 0 01-1 1h-4a1 1 0 01-1-1v-6a1 1 0 011-1h4zM88 56a1 1 0 011 1v6a1 1 0 01-1 1h-4a1 1 0 01-1-1v-6a1 1 0 011-1h4zm-72 0a1 1 0 011 1v6a1 1 0 01-1 1h-4a1 1 0 01-1-1v-6a1 1 0 011-1h4zm12 0a1 1 0 011 1v6a1 1 0 01-1 1h-4a1 1 0 01-1-1v-6a1 1 0 011-1h4zm12 0a1 1 0 011 1v6a1 1 0 01-1 1h-4a1 1 0 01-1-1v-6a1 1 0 011-1h4zm12 0a1 1 0 011 1v6a1 1 0 01-1 1h-4a1 1 0 01-1-1v-6a1 1 0 011-1h4zm12 0a1 1 0 011 1v6a1 1 0 01-1 1h-4a1 1 0 01-1-1v-6a1 1 0 011-1h4zm12 0a1 1 0 011 1v6a1 1 0 01-1 1h-4a1 1 0 01-1-1v-6a1 1 0 011-1h4zM28 72a1 1 0 011 1v6a1 1 0 01-1 1h-4a1 1 0 01-1-1v-6a1 1 0 011-1h4zm12 0a1 1 0 011 1v6a1 1 0 01-1 1h-4a1 1 0 01-1-1v-6a1 1 0 011-1h4zm12 0a1 1 0 011 1v6a1 1 0 01-1 1h-4a1 1 0 01-1-1v-6a1 1 0 011-1h4zm12 0a1 1 0 011 1v6a1 1 0 01-1 1h-4a1 1 0 01-1-1v-6a1 1 0 011-1h4zm12 0a1 1 0 011 1v6a1 1 0 01-1 1h-4a1 1 0 01-1-1v-6a1 1 0 011-1h4z" fill="#454F5B"/><g stroke="#454F5B" stroke-linecap="round" stroke-linejoin="round"><path d="M5 75.5l4-4 4 4M9 71.5v9"/></g><path d="M87.725 72l-3.556 4 3.556 4L95 79.5l-.5-7.5h-6.775z" stroke="#454F5B"/><path d="M10 88a1 1 0 011 1v6a1 1 0 01-1 1H6a1 1 0 01-1-1v-6a1 1 0 011-1h4zm12 0a1 1 0 011 1v6a1 1 0 01-1 1h-4a1 1 0 01-1-1v-6a1 1 0 011-1h4zm48 0a1 1 0 011 1v6a1 1 0 01-1 1H30a1 1 0 01-1-1v-6a1 1 0 011-1h40zm12 0a1 1 0 011 1v6a1 1 0 01-1 1h-4a1 1 0 01-1-1v-6a1 1 0 011-1h4zm12 0a1 1 0 011 1v6a1 1 0 01-1 1h-4a1 1 0 01-1-1v-6a1 1 0 011-1h4z" fill="#454F5B"/><path fill="#FFF" d="M0 32h100V0H0z"/><path fill="#DFE3E8" d="M0 32h100V16H0z"/><g transform="translate(5 19)"><circle fill="#FFF" cx="5" cy="5" r="5"/><g fill-rule="nonzero"><path d="M7.834 5.042c0-.244-.02-.423-.063-.608H4.976v1.105h1.64a1.454 1.454 0 01-.608.965l-.005.037.883.685.061.006c.563-.52.887-1.283.887-2.19" fill="#4285F4"/><path d="M4.976 7.953c.804 0 1.479-.265 1.971-.721l-.939-.728c-.251.175-.589.298-1.032.298-.787 0-1.455-.52-1.693-1.237l-.035.003-.919.711-.012.033a2.974 2.974 0 002.66 1.64" fill="#34A853"/><path d="M3.283 5.565a1.832 1.832 0 01-.003-1.177l-.002-.04-.93-.722-.03.014a2.98 2.98 0 000 2.672l.965-.747" fill="#FBBC05"/><path d="M4.976 3.15c.56 0 .936.242 1.151.444l.84-.82A2.86 2.86 0 004.977 2c-1.165 0-2.17.668-2.66 1.64l.963.748A1.8 1.8 0 014.976 3.15" fill="#EB4335"/></g></g><g transform="translate(87 19)" stroke="#C4CDD5" stroke-linecap="round" stroke-linejoin="round"><rect x="2" y=".4" width="4" height="5.6" rx="2"/><path d="M7.6 3.6V4A3.6 3.6 0 014 7.6h0A3.6 3.6 0 01.4 4v-.4M4 7.6v1.6"/></g><rect fill="#C4CDD5" x="30" y="6" width="40" height="4" rx="2"/><path d="M86.172 8a4.828 4.828 0 109.655 0 4.828 4.828 0 00-9.655 0z" fill="#FFF"/><path d="M91 4.207a3.793 3.793 0 110 7.586 3.793 3.793 0 010-7.586" fill="#1A8CFF"/><path d="M86 8a5 5 0 1010 0 5 5 0 00-10 0zm.172 0a4.828 4.828 0 119.656 0 4.828 4.828 0 01-9.656 0z" fill="#000" fill-rule="nonzero" opacity=".5"/><path d="M95.82 7.741a4.828 4.828 0 11-9.642 0 4.828 4.828 0 009.64.06l.003-.06zM91 3.69a4.224 4.224 0 012.704 7.47 3.966 3.966 0 10-5.408 0A4.224 4.224 0 0191 3.69z" fill-opacity=".052" fill="#000"/><path d="M91 4.207a3.793 3.793 0 11-3.788 3.988L87.207 8A3.793 3.793 0 0191 4.207zm0 .172a3.62 3.62 0 100 7.242 3.62 3.62 0 000-7.242z" fill="#000" fill-rule="nonzero" opacity=".256"/><path d="M91.02 4.983a3.026 3.026 0 00-3.037 3.036c0 1.654 1.357 2.998 3.036 2.998a3.01 3.01 0 002.998-2.998c0-1.68-1.344-3.036-2.998-3.036zm0 .172c1.551 0 2.825 1.274 2.825 2.864a2.837 2.837 0 01-2.826 2.826c-1.59 0-2.864-1.274-2.864-2.826a2.853 2.853 0 012.864-2.864z" fill-opacity=".25" fill="#000" fill-rule="nonzero"/><path d="M91.02 5.155c1.551 0 2.825 1.274 2.825 2.864a2.837 2.837 0 01-2.826 2.826c-1.59 0-2.864-1.274-2.864-2.826a2.853 2.853 0 012.864-2.864z" fill="#F7F7F7"/><g><path d="M92.293 8a1.293 1.293 0 11-2.586 0 1.293 1.293 0 012.586 0z" fill-opacity=".05" fill="#000"/><path d="M91 6.534a1.466 1.466 0 100 2.932 1.466 1.466 0 000-2.932zm0 .173a1.293 1.293 0 110 2.586 1.293 1.293 0 010-2.586z" fill="#FFF" fill-rule="nonzero"/><path d="M91 6.707a1.293 1.293 0 110 2.586 1.293 1.293 0 010-2.586zm0 .172a1.12 1.12 0 100 2.242 1.12 1.12 0 000-2.242z" fill-opacity=".15" fill="#000" fill-rule="nonzero"/></g><g><path d="M91.48 5.759h-.96c-.214 0-.382.186-.382.411v.93c0 .085.03.167.086.228l.141.157c.003.004.003.014 0 .017l-.141.157a.34.34 0 00-.086.228V9.83c0 .225.168.411.381.411h.962c.213 0 .381-.186.381-.411V8.9a.34.34 0 00-.086-.228l-.141-.157c-.003-.004-.003-.014 0-.017l.141-.157a.34.34 0 00.086-.228V6.17c0-.225-.168-.411-.381-.411zm-.01.175c.121 0 .22.112.22.25v1.928a.178.178 0 01-.043.118l-.138.155a.182.182 0 000 .235l.138.156a.178.178 0 01.043.117v.924c0 .137-.099.249-.22.249h-.94c-.121 0-.22-.112-.22-.25V7.889c0-.044.016-.087.043-.118l.138-.155a.182.182 0 000-.235l-.138-.156a.178.178 0 01-.043-.117v-.924c0-.137.099-.249.22-.249h.94z" fill="#FFF" fill-rule="nonzero"/><path d="M90.31 7.105v-.924c0-.138.099-.25.22-.25h.94c.121 0 .22.112.22.25v1.931a.178.178 0 01-.043.118l-.138.156a.183.183 0 000 .235l.138.156a.178.178 0 01.043.118v.924c0 .138-.099.25-.22.25h-.94c-.121 0-.22-.112-.22-.25V7.888c0-.045.016-.087.043-.118l.138-.156a.183.183 0 000-.235l-.138-.156a.178.178 0 01-.043-.118z" fill="#0A2D4D"/><path d="M91.47 5.931c.121 0 .22.112.22.25v1.931a.178.178 0 01-.043.118l-.138.156a.183.183 0 000 .235l.138.156a.178.178 0 01.043.118v.924c0 .138-.099.25-.22.25h-.94c-.121 0-.22-.112-.22-.25V7.888c0-.045.016-.087.043-.118l.138-.156a.183.183 0 000-.235l-.138-.156a.178.178 0 01-.043-.118v-.924c0-.138.099-.25.22-.25h.94zm-.025.177l-.89-.001c-.035 0-.068.033-.072.079v.927l.001.006.001.002.144.155c.113.12.117.31.012.436l-.012.013-.144.155-.002.005v1.919c0 .048.03.084.065.089h.007l.89.001c.035 0 .068-.033.072-.079V8.89l-.001-.007-.001-.002-.144-.155a.333.333 0 01-.012-.436l.012-.013.144-.155.002-.005V6.197c0-.048-.03-.084-.065-.088h-.007z" fill-opacity=".4" fill="#000" fill-rule="nonzero"/></g></g><path d="M237.837 273.177s26.932-26.063 31.71-31.06c4.779-4.994 10.208-6.732 14.769-6.08 4.562.65 7.385 3.475 8.688 2.823 1.303-.651 13.684 0 13.684 0s7.384 1.52 4.778 11.295c-2.607 9.773-28.67 13.9-33.448 23.022-4.779 9.122-2.389 16.507-11.294 33.882-8.905 17.376-28.887-33.882-28.887-33.882" fill="#947557"/><path d="M301.91 248.85c3.231.943 7.211.717 9.771.409 1.935-8.972-4.994-10.4-4.994-10.4s-10.339-.543-13.11-.14c1.647 3.488 4.788 9.098 8.332 10.132" fill="#A58464"/><path d="M283.67 242.1c-.12.37.231.667.734 1.14.497.495.521.877.832 1.346.296.494.393.674.485 1.005.167.417.023.968.195 1.582.132.54.17.99.53 1.023.464.048.695-.461.624-.786-.17-.61.105-.927-.078-1.583-.369-1.08-.557-1.797-.693-2.26-.072-.256-.41-.51-.68-.78-.257-.25-.286-.46-.675-.667-.77-.387-1.168-.34-1.274-.02M230.23 346.354c.05.19 1.616-.134 4.107-1.266 2.492-1.12 5.915-3.057 9.532-5.995.456-.36.911-.695 1.329-1.046.407-.363.802-.715 1.184-1.058l2.182-1.94c1.312-1.299 2.465-2.51 3.607-3.668 1.106-1.19 2.075-2.438 3.148-3.706 1.106-1.246 2.054-2.713 3.169-4.317l1.525-2.224c.458-.686.804-1.36 1.164-1.963l1.832-3.178.778-1.349c.24-.442.437-.892.656-1.333l1.354-2.79.953-1.957c.327-.668.684-1.343.958-2.073l1.862-4.524.987-2.41c.334-.822.569-1.696.863-2.567.56-1.752 1.129-3.574 1.697-5.463.537-1.616.83-3.206 1.165-4.626l.829-3.775c.449-2.144.666-3.466.493-3.503-.458-.092-2.035 5.407-2.806 8.87-1.81 6.541-2.986 9.644-5.681 16.264-4.601 11.362-9.556 17.733-12.385 21.388-.842.978-1.868 2.261-2.995 3.685-1.194 1.362-2.556 2.804-3.903 4.235-1.364 1.247-2.367 2.118-3.421 3.045-1.117.85-2.262 1.794-3.992 3.086-3.429 2.566-6.104 3.9-7.778 4.795-1.695.876-2.465 1.177-2.413 1.363" fill="#6E5641"/></g><g mask="url(#b)"><g transform="rotate(2 -2067.968 12581.277)"><rect fill="#352315" opacity=".12" x="8.274" y="7.716" width="358" height="270" rx="18"/><rect fill="#020241" width="358" height="270" rx="18"/><path d="M13 12h332a1 1 0 011 1v244a1 1 0 01-1 1H13a1 1 0 01-1-1V13a1 1 0 011-1z" fill="#4D5D8C"/><path d="M13 12h332a1 1 0 011 1v18a1 1 0 01-1 1H13a1 1 0 01-1-1V13a1 1 0 011-1z" fill="#6D7AA0"/><g transform="translate(83 67)"><rect fill="#FFF" width="192" height="156" rx="6"/><path d="M143 48a3 3 0 010 6H49a3 3 0 010-6h94zm27-12a3 3 0 010 6H22a3 3 0 010-6h148z" fill="#C4CDD5"/><path fill="#DFE3E8" d="M0 66h192v1H0z"/><rect fill="#C4CDD5" x="56" y="79" width="80" height="6" rx="3"/><path fill="#DFE3E8" d="M0 97h192v1H0z"/><rect fill="#C4CDD5" x="66" y="110" width="60" height="6" rx="3"/><path fill="#DFE3E8" d="M0 128h192v1H0z"/><rect fill="#C4CDD5" x="76" y="140" width="40" height="6" rx="3"/><g stroke="#919EAB" stroke-linecap="round" stroke-linejoin="round"><path d="M88.5 10.5h6v6h-6zM88.5 19.5h6v6h-6zM97.5 10.5h6v6h-6zM103.5 25.5h-6M99.5 19.5h4v3"/></g></g></g></g><g mask="url(#b)"><g transform="translate(720 296)"><rect fill="#1A8CFF" width="160" height="58" rx="8"/><g stroke-linecap="round" stroke-linejoin="round" stroke="#FFF" stroke-width="2"><path d="M115.982 18.81a17.538 17.538 0 00-2.631 13.273M138.602 12.94a17.517 17.517 0 00-11.483-1.58 17.51 17.51 0 00-8.59 4.44M147.84 25.129a17.52 17.52 0 00-6.04-10.087M148.197 28.96a17.673 17.673 0 00-.347-3.833M113.36 32.081c.051.253.107.503.168.75M126.054 45.604c3.94-4.486 5.817-10.694 4.546-16.999"/><path d="M131.157 46.19c3.561-5.204 5.176-12.657 3.755-18.454-.645-2.67-2.801-3.933-5.188-3.452-2.386.481-3.917 2.694-3.435 5.19 1.061 5.501-.816 10.779-4.588 14.308M122.172 31.8a11.018 11.018 0 01-4.019 9.243"/><path d="M139.696 30.2a28.882 28.882 0 00-.473-3.334h.002a8.802 8.802 0 00-10.37-6.89 8.807 8.807 0 00-7.025 7.795M136.907 45.028a28.507 28.507 0 002.837-10.828M126.568 16.037c-6.326 2.018-10.252 8.517-8.91 15.177l.007-.001a6.61 6.61 0 01-2.211 6.355"/><path d="M143.083 40.998a32.861 32.861 0 00.452-15h-.003c-1.264-6.27-6.775-10.597-12.932-10.592"/></g></g></g></g></svg>